<?xml version='1.0' encoding='utf-8'?>
<svg xmlns="http://www.w3.org/2000/svg" width="91.44mm" height="91.44mm" viewBox="0 0 9144 9144"> <path fill="#011627" d="M6601 4572c0,-560 -227,-1067 -594,-1435 -368,-367 -875,-594 -1435,-594 -560,0 -1067,227 -1435,594 -367,368 -594,875 -594,1435 0,560 227,1067 594,1435 368,367 875,594 1435,594 560,0 1067,-227 1435,-594 367,-368 594,-875 594,-1435zm-551 621c0,49 -39,88 -88,88 -49,0 -88,-39 -88,-88 0,-159 -65,-302 -169,-406 -104,-104 -247,-169 -406,-169l-1900 0 441 429c35,34 36,90 2,124 -34,35 -90,36 -124,2l-593 -575c-19,-17 -31,-41 -31,-68 0,-27 12,-51 31,-68l593 -574c34,-34 90,-33 124,2 34,34 33,90 -2,124l-441 428 1900 0c207,0 395,84 531,220 136,136 220,324 220,531zm81 -2180c399,399 646,950 646,1559 0,609 -247,1160 -646,1559 -399,399 -950,646 -1559,646 -609,0 -1160,-247 -1559,-646 -399,-399 -646,-950 -646,-1559 0,-609 247,-1160 646,-1559 399,-399 950,-646 1559,-646 609,0 1160,247 1559,646z"/> </svg>