<?xml version="1.0" standalone="no"?>
<!DOCTYPE svg PUBLIC "-//W3C//DTD SVG 20010904//EN"
 "http://www.w3.org/TR/2001/REC-SVG-20010904/DTD/svg10.dtd">
<svg version="1.0" xmlns="http://www.w3.org/2000/svg"
 width="300.000000pt" height="353.000000pt" viewBox="0 0 300.000000 353.000000"
 preserveAspectRatio="xMidYMid meet">
      <defs>
       <style type="text/css"><![CDATA[
        fill:url(#gradient1);
        ]]>
      </style>
        <linearGradient id="gradient1" x1="0%" y1="100%"
                    x2="0%" y2="0%">
          <stop offset="25%" stop-color="#1a2d8c" />
          <stop offset="75%" stop-color="#d8bfd8" />
        </linearGradient>
      </defs>
<g transform="translate(0.000000,353.000000) scale(0.050000,-0.050000)"
fill="url(#gradient1)" stroke="none">
<path d="M3578 6515 c-205 -137 -169 -496 57 -564 43 -13 45 -23 44 -217 l0
-204 -220 -228 -219 -227 0 -389 c0 -214 -7 -386 -15 -383 -9 4 -58 53 -110
109 l-95 102 0 579 0 578 58 34 c226 134 91 515 -166 467 -229 -43 -258 -415
-39 -494 15 -5 25 -95 30 -263 4 -140 1 -253 -6 -250 -8 3 -105 101 -216 219
l-203 214 -1 254 c-2 244 0 255 43 278 202 108 55 428 -155 339 -125 -52 -149
-229 -43 -318 l58 -48 0 -267 1 -266 259 -273 260 -273 0 -275 0 -274 170
-174 170 -174 0 -211 0 -212 -170 -182 c-140 -150 -170 -193 -170 -246 l0 -64
-69 67 -69 67 2 275 2 276 57 42 c43 32 57 59 57 108 0 129 -153 200 -240 113
-65 -65 -43 -240 31 -240 24 0 29 -40 29 -218 0 -120 6 -235 13 -255 7 -21
-53 27 -132 105 l-145 142 1 454 0 453 60 57 c145 134 65 382 -123 382 -200 0
-284 -293 -113 -394 l59 -35 0 -267 0 -268 -179 187 -179 187 -1 341 -1 341
71 69 c54 52 85 67 129 62 128 -13 201 139 118 245 -90 115 -291 14 -243 -122
18 -51 12 -66 -58 -146 l-77 -90 0 -316 c0 -206 -7 -312 -20 -304 -13 8 -20
268 -20 713 l0 701 50 40 c101 79 35 256 -96 256 -132 0 -185 -162 -84 -254
l49 -43 5 -562 c3 -308 0 -561 -8 -561 -45 0 -96 124 -96 233 l0 118 -190 189
c-167 167 -190 198 -191 260 -1 164 -211 234 -267 89 -51 -133 129 -321 199
-208 7 12 94 -64 200 -175 l187 -196 1 -121 c1 -114 5 -125 81 -199 71 -70 80
-89 80 -173 0 -95 2 -97 245 -351 135 -141 256 -263 270 -272 17 -11 25 -74
26 -190 l1 -174 288 -300 289 -300 0 -845 c1 -465 -6 -845 -14 -845 -8 1 -58
52 -111 115 l-97 115 0 436 c-1 385 3 441 35 490 141 215 -45 536 -288 497
-344 -56 -347 -569 -4 -629 l81 -14 4 -235 c3 -129 -1 -233 -9 -230 -7 3 -122
120 -255 261 l-241 256 0 284 1 284 63 31 c191 94 191 368 0 459 -55 26 -63
40 -64 108 0 87 -1 89 -384 490 -257 269 -273 304 -184 393 99 98 35 249 -105
249 -131 0 -177 -181 -67 -263 44 -32 60 -61 61 -106 0 -46 28 -91 115 -184
63 -68 202 -218 309 -333 211 -226 250 -315 150 -344 -25 -8 -64 -36 -87 -63
l-41 -49 -113 121 -112 121 -146 0 -146 1 -135 148 -135 148 0 246 0 246 -132
133 c-116 117 -129 138 -110 174 111 208 -133 446 -332 325 -235 -144 -103
-521 162 -461 75 16 79 15 184 -97 l107 -113 0 -247 1 -247 163 -178 163 -178
142 0 143 0 125 -126 c89 -89 131 -150 150 -215 18 -63 44 -101 89 -129 l63
-40 1 -327 1 -327 304 -319 304 -319 -5 -88 c-6 -85 -1 -92 197 -308 l202
-220 -6 -471 -6 -471 86 0 87 0 -5 209 -5 209 157 166 c87 91 169 173 184 182
19 11 26 74 26 223 l0 207 71 42 c97 57 142 164 113 271 l-20 78 313 327 c172
180 321 352 331 383 10 31 37 65 60 75 160 71 169 357 14 437 -62 32 -62 33
-63 197 0 90 -5 272 -11 404 l-10 240 302 316 303 316 -5 239 -5 239 76 90 75
90 51 -40 c236 -186 507 177 292 391 -152 153 -448 4 -399 -201 7 -28 -22 -74
-99 -158 l-109 -118 0 -245 0 -246 -165 -177 c-90 -97 -221 -234 -289 -306
-101 -105 -126 -143 -126 -195 0 -79 -8 -80 -70 -10 -38 43 -49 78 -49 155 l1
100 229 238 229 239 0 229 0 228 50 -12 c68 -17 150 63 150 145 0 64 -52 139
-100 144 -154 18 -169 -18 -162 -396 l5 -305 -126 -135 c-70 -74 -174 -184
-232 -245 -151 -159 -156 -322 -15 -460 78 -76 90 -99 89 -169 l-1 -81 -168
180 c-238 254 -238 289 6 540 96 99 222 230 279 292 l105 112 6 342 6 342 54
50 c70 65 74 167 8 229 -142 133 -309 -65 -182 -215 49 -59 52 -74 62 -380
l10 -318 -257 -274 c-175 -187 -259 -264 -264 -242 -6 32 174 245 365 431 l92
89 0 186 c0 184 -1 187 -70 263 -52 57 -70 96 -70 147 0 137 -137 200 -231
107 -105 -105 -36 -259 112 -248 137 10 199 -72 198 -262 l0 -151 -195 -212
-194 -212 -6 71 c-5 52 4 79 34 102 88 68 83 233 -7 268 -163 62 -277 -129
-150 -248 l62 -58 -5 -301 -5 -302 203 -204 204 -205 0 -194 0 -194 -60 -31
c-166 -86 -139 -450 34 -450 58 0 11 -60 -292 -379 -214 -224 -315 -316 -329
-302 -12 12 -61 21 -110 21 -232 0 -317 -329 -118 -458 l75 -49 0 -161 0 -162
-125 -144 c-69 -79 -129 -144 -135 -145 -5 0 -10 246 -10 549 l0 549 162 166
c295 300 268 246 268 548 0 242 3 265 38 276 56 18 93 121 66 181 -57 125
-194 129 -262 8 -35 -64 -2 -169 60 -189 35 -11 38 -34 38 -263 l0 -251 -173
-182 c-196 -207 -207 -215 -207 -149 0 31 41 87 120 166 l120 119 0 134 c0
117 7 142 50 185 133 134 -29 359 -166 231 -65 -60 -61 -187 6 -231 94 -61 74
-276 -36 -384 l-86 -84 4 572 4 572 88 93 c48 51 126 136 172 188 l84 94 1
686 1 685 220 230 219 230 -5 238 c-5 226 -3 239 37 253 69 26 151 150 162
246 29 264 -246 449 -457 308z m-1085 -124 c79 -56 69 -176 -18 -209 -119 -45
-207 106 -115 198 48 48 77 50 133 11z m1341 -34 c57 -55 59 -135 5 -204 -53
-67 -141 -71 -198 -9 -126 135 58 339 193 213z m-1965 -208 c49 -49 16 -149
-49 -149 -27 0 -80 60 -80 90 0 30 53 90 80 90 9 0 31 -14 49 -31z m1186 -144
c62 -81 -5 -225 -104 -225 -54 0 -131 84 -131 144 0 111 168 169 235 81z
m-1835 -315 c43 -52 8 -130 -58 -130 -80 0 -108 71 -51 129 40 39 77 40 109 1z
m3149 -181 c63 -64 15 -166 -67 -140 -57 19 -73 86 -31 132 43 47 57 48 98 8z
m-2141 -52 c39 -56 9 -117 -58 -117 -67 0 -97 61 -58 117 17 24 43 43 58 43
15 0 41 -19 58 -43z m3030 -120 c60 -106 -38 -239 -146 -198 -109 42 -118 202
-14 254 60 30 124 8 160 -56z m-1230 -62 c28 -45 -5 -102 -65 -111 -58 -9
-102 80 -63 126 33 40 99 32 128 -15z m551 -104 c53 -64 -25 -162 -94 -119
-69 44 -45 148 35 148 19 0 46 -13 59 -29z m-3969 -251 c76 -84 18 -240 -88
-240 -60 0 -122 76 -122 150 0 116 135 173 210 90z m1826 -24 c38 -38 29 -132
-15 -155 -52 -28 -73 -26 -110 10 -63 64 -27 169 59 169 23 0 53 -11 66 -24z
m-1033 -285 c28 -62 -5 -111 -75 -111 -34 0 -51 14 -60 50 -25 101 93 154 135
61z m2417 -39 c0 -64 -53 -106 -97 -79 -47 30 -54 110 -12 140 47 35 109 0
109 -61z m-1031 -463 c52 -52 15 -149 -56 -149 -38 0 -73 43 -73 90 0 82 72
115 129 59z m-718 -776 c38 -54 37 -113 -3 -170 -46 -66 -165 -54 -207 21 -79
142 116 282 210 149z m1425 -317 c37 -37 28 -112 -16 -136 -46 -24 -132 43
-108 86 45 78 81 93 124 50z m731 -138 c128 -59 92 -258 -47 -258 -162 0 -167
228 -6 279 2 0 26 -9 53 -21z m-1658 -82 c106 -152 -71 -335 -200 -207 -99 99
-36 251 104 251 44 0 75 -14 96 -44z m750 -55 c47 -87 -53 -156 -123 -86 -33
33 -36 48 -17 83 28 53 112 56 140 3z m152 -1048 c38 -54 37 -113 -3 -170 -46
-66 -165 -54 -207 21 -79 142 116 282 210 149z"/>
<path d="M5180 4740 c-22 -22 -40 -63 -40 -92 0 -39 -57 -113 -221 -288 l-221
-236 14 -210 14 -210 -61 -13 c-230 -50 -237 -402 -9 -486 l47 -17 0 -523 1
-524 -107 -118 c-59 -66 -236 -256 -395 -423 l-287 -303 13 -124 12 -124 -320
-340 -320 -339 0 -105 c0 -103 1 -105 60 -105 57 0 60 4 60 83 0 92 -16 71
404 515 l216 228 1 142 1 142 216 226 216 226 215 -3 215 -4 123 122 c141 139
291 175 348 83 65 -104 245 -27 245 104 0 152 -180 186 -266 51 -31 -49 -47
-55 -141 -55 -104 0 -109 -3 -221 -120 l-116 -120 -170 0 -171 0 130 145 130
145 249 6 249 5 88 90 c87 89 179 120 179 60 0 -40 79 -91 141 -91 148 0 172
227 30 279 -55 21 -147 -14 -162 -61 -8 -25 -30 -38 -66 -38 -38 0 -81 -27
-143 -90 l-88 -90 -228 0 c-200 0 -226 4 -220 33 5 28 33 32 189 29 l182 -4
116 131 116 131 145 0 c100 0 163 -11 204 -34 145 -83 264 108 149 239 -67 76
-211 23 -235 -85 -13 -60 -14 -60 -152 -60 l-139 0 -116 -124 -116 -123 -174
-7 -173 -6 0 51 c0 38 52 109 194 261 l194 208 104 0 c102 0 106 2 224 129
l121 129 60 -30 c192 -95 348 200 180 341 -128 108 -296 21 -298 -152 0 -120
-191 -337 -294 -337 l-65 0 1 435 0 435 146 159 c145 157 146 158 194 125 190
-133 433 134 302 331 -147 224 -458 97 -418 -170 9 -59 -5 -80 -157 -239
l-168 -175 0 -465 -1 -466 -101 -105 c-55 -58 -105 -105 -110 -105 -5 0 -8
105 -7 232 l3 233 68 75 68 75 0 208 0 209 -90 88 c-130 128 -107 227 48 206
147 -20 225 162 109 253 -105 82 -227 10 -227 -135 0 -52 -13 -90 -40 -114
-63 -57 -49 -123 50 -236 l90 -103 0 -168 c0 -163 -2 -170 -68 -243 l-68 -76
9 -289 c7 -243 4 -293 -22 -314 -28 -23 -31 12 -31 328 l0 354 59 59 c116 116
105 279 -26 389 l-84 70 6 193 c8 220 1 208 227 440 142 145 172 167 202 148
61 -38 130 -25 175 31 83 106 26 247 -99 247 -33 0 -78 -18 -100 -40z m149
-51 c43 -43 39 -81 -11 -116 -54 -38 -95 -22 -111 42 -21 82 63 132 122 74z
m469 -381 c47 -60 40 -134 -18 -195 -80 -84 -227 -15 -227 106 0 135 162 194
245 89z m-685 -198 c15 -40 -29 -110 -70 -110 -79 0 -116 120 -49 157 39 22
102 -3 119 -47z m-286 -595 c51 -68 29 -149 -51 -194 -114 -64 -234 122 -143
222 49 55 142 42 194 -28z m1029 -239 c34 -34 30 -117 -9 -159 -87 -96 -210
25 -146 144 23 44 117 53 155 15z m30 -672 c40 -44 4 -134 -54 -134 -63 0 -98
73 -61 126 38 53 72 56 115 8z m-150 -248 c53 -53 14 -156 -59 -156 -59 0 -86
74 -48 131 35 54 70 62 107 25z m-207 -275 c63 -70 -7 -178 -84 -129 -61 39
-34 168 35 168 8 0 29 -17 49 -39z"/>
<path d="M139 3926 c-154 -106 -143 -358 18 -425 39 -16 63 -40 63 -63 0 -21
91 -132 203 -248 l202 -210 145 0 144 0 162 -168 161 -168 7 -177 c3 -97 6
-177 6 -177 0 0 -117 4 -260 8 l-260 8 -126 134 -125 134 24 91 c71 266 -266
442 -417 217 -127 -188 9 -425 227 -395 l85 12 146 -159 146 -160 247 0 247 0
177 -185 177 -185 1 -223 1 -224 500 -526 c468 -495 499 -532 500 -602 0 -70
4 -75 59 -75 l59 0 -11 105 c-9 78 -27 121 -70 166 l-57 61 0 312 0 311 -118
128 c-105 113 -117 134 -107 193 19 119 -123 210 -217 138 -133 -102 -39 -315
117 -265 29 9 66 -18 152 -109 l113 -121 0 -263 0 -263 -185 198 c-102 109
-287 306 -411 438 l-226 239 4 217 5 216 -74 76 -73 75 0 396 c0 460 29 389
-285 707 -189 193 -200 208 -179 255 70 153 -156 280 -248 140 -69 -106 -1
-231 126 -229 46 0 98 -43 290 -245 l235 -246 0 -356 c1 -233 -6 -352 -19
-344 -12 7 -20 135 -20 316 l0 304 -222 235 -222 235 -117 0 c-161 0 -242 74
-159 145 84 72 12 255 -100 255 -112 0 -183 -181 -101 -255 22 -19 78 -73 124
-120 80 -82 88 -85 208 -85 l125 0 200 -216 201 -215 6 -255 c5 -163 0 -252
-13 -247 -11 3 -24 113 -30 246 l-10 241 -173 183 -172 183 -143 0 -143 0
-185 192 c-214 224 -217 230 -128 272 73 35 134 137 134 225 0 173 -204 291
-341 197z m193 -93 c106 -91 27 -299 -99 -262 -159 48 -145 309 17 309 15 0
52 -21 82 -47z m307 -362 c53 -64 -25 -162 -94 -119 -69 44 -45 148 35 148 19
0 46 -13 59 -29z m320 0 c53 -64 -25 -162 -94 -119 -69 44 -45 148 35 148 19
0 46 -13 59 -29z m-565 -688 c27 -101 -24 -183 -112 -182 -102 1 -160 90 -123
187 40 105 207 102 235 -5z m1815 -1282 c64 -71 -7 -165 -90 -120 -49 26 -51
110 -4 137 48 28 54 27 94 -17z"/>
<path d="M1049 1831 c-73 -74 -68 -193 11 -264 50 -45 60 -69 60 -145 0 -79
11 -104 75 -172 41 -44 236 -250 433 -458 l357 -377 -10 -128 c-10 -123 -9
-127 37 -127 46 0 48 5 48 151 l0 152 -425 450 c-484 514 -499 540 -374 665
57 57 63 73 53 147 -20 146 -166 205 -265 106z m171 -82 c34 -40 -4 -129 -56
-129 -45 0 -84 37 -84 80 0 73 93 106 140 49z"/>
<path d="M479 1795 c-218 -147 -98 -459 164 -428 l95 11 106 -117 c58 -65 240
-258 404 -429 l297 -312 -3 -180 -4 -180 51 0 51 0 0 195 -1 195 -427 450
c-341 359 -424 457 -410 484 110 210 -130 441 -323 311z m220 -99 c85 -91 19
-256 -103 -256 -59 0 -136 89 -136 159 0 126 154 189 239 97z"/>
<path d="M4989 1579 c-87 -91 -84 -220 6 -300 85 -76 107 -40 -240 -406 -168
-178 -326 -345 -350 -372 -73 -79 -67 -341 7 -341 51 0 51 1 39 125 l-12 125
350 370 c193 203 351 385 351 402 0 18 27 45 61 58 108 45 149 184 89 300 -62
119 -206 138 -301 39z m224 -91 c31 -47 32 -58 5 -105 -58 -105 -203 -71 -203
47 0 115 135 154 198 58z"/>
<path d="M4363 1374 c-61 -66 -57 -162 11 -229 108 -108 95 -130 -328 -567
l-166 -172 0 -123 c0 -118 2 -123 50 -123 48 0 50 5 42 92 -10 106 -5 112 342
470 189 195 206 218 206 290 1 57 14 91 50 125 64 61 69 184 10 243 -56 56
-161 53 -217 -6z m145 -46 c41 -16 41 -95 0 -129 -62 -52 -140 48 -87 112 26
32 41 35 87 17z"/>
</g>
</svg>
